<?xml version="1.0" encoding="UTF-8" standalone="no"?>
<!-- Created with Inkscape (http://www.inkscape.org/) -->

<svg
   xmlns:dc="http://purl.org/dc/elements/1.1/"
   xmlns:cc="http://creativecommons.org/ns#"
   xmlns:rdf="http://www.w3.org/1999/02/22-rdf-syntax-ns#"
   xmlns:svg="http://www.w3.org/2000/svg"
   xmlns="http://www.w3.org/2000/svg"
   version="1.1"
   width="36"
   height="36"
   id="svg3812">
  <defs
     id="defs3814" />
  <metadata
     id="metadata3817">
    <rdf:RDF>
      <cc:Work
         rdf:about="">
        <dc:format>image/svg+xml</dc:format>
        <dc:type
           rdf:resource="http://purl.org/dc/dcmitype/StillImage" />
        <dc:title></dc:title>
      </cc:Work>
    </rdf:RDF>
  </metadata>
  <g
     transform="translate(0,-1016.3622)"
     id="layer1">
    <a
       transform="matrix(1,0,0,0.98976424,-4.6719555,12.4245)"
       id="a3828">
      <path
         d="m 16.785714,7.2946429 a 5.7142859,5.1339288 0 1 1 -11.4285716,0 5.7142859,5.1339288 0 1 1 11.4285716,0 z"
         transform="translate(0,1016.3622)"
         id="path3824"
         style="fill:#ffffff;fill-rule:evenodd;stroke:#000000;stroke-width:1px;stroke-linecap:butt;stroke-linejoin:miter;stroke-opacity:1" />
    </a>
    <a
       transform="matrix(1,0,0,0.98976424,18.391318,12.740173)"
       id="a3839">
      <path
         d="m 16.785714,7.2946429 a 5.7142859,5.1339288 0 1 1 -11.4285716,0 5.7142859,5.1339288 0 1 1 11.4285716,0 z"
         transform="translate(0,1016.3622)"
         id="path3841"
         style="fill:#ffffff;fill-rule:evenodd;stroke:#000000;stroke-width:1px;stroke-linecap:butt;stroke-linejoin:miter;stroke-opacity:1" />
    </a>
    <a
       transform="matrix(1,0,0,0.98976424,6.8816642,8.5101589)"
       id="a4294">
      <path
         d="m 16.785714,7.2946429 a 5.7142859,5.1339288 0 1 1 -11.4285716,0 5.7142859,5.1339288 0 1 1 11.4285716,0 z"
         transform="translate(0,1016.3622)"
         id="path4296"
         style="fill:#ffffff;fill-rule:evenodd;stroke:#000000;stroke-width:1px;stroke-linecap:butt;stroke-linejoin:miter;stroke-opacity:1" />
    </a>
    <path
       d="m 3.6297363,1022.278 5.619973,5.62"
       id="path3808"
       style="fill:none;stroke:#000000;stroke-width:0.93586659px;stroke-linecap:butt;stroke-linejoin:miter;stroke-opacity:1" />
    <path
       d="m 3.7578353,1027.6689 5.060729,-5.3638"
       id="path3810"
       style="fill:none;stroke:#000000;stroke-width:0.99003363px;stroke-linecap:butt;stroke-linejoin:miter;stroke-opacity:1" />
    <path
       d="m 15.37276,1018.3005 5.619973,5.62"
       id="path4339"
       style="fill:none;stroke:#000000;stroke-width:0.93586659px;stroke-linecap:butt;stroke-linejoin:miter;stroke-opacity:1" />
    <path
       d="m 15.500859,1023.6914 5.060729,-5.3638"
       id="path4341"
       style="fill:none;stroke:#000000;stroke-width:0.99003363px;stroke-linecap:butt;stroke-linejoin:miter;stroke-opacity:1" />
    <path
       d="m 26.736976,1022.278 5.619973,5.62"
       id="path4343"
       style="fill:none;stroke:#000000;stroke-width:0.93586659px;stroke-linecap:butt;stroke-linejoin:miter;stroke-opacity:1" />
    <path
       d="m 26.865075,1027.6689 5.060729,-5.3638"
       id="path4345"
       style="fill:none;stroke:#000000;stroke-width:0.99003363px;stroke-linecap:butt;stroke-linejoin:miter;stroke-opacity:1" />
  </g>
</svg>
