<?xml version="1.0" encoding="UTF-8" standalone="no"?>
<!-- Created with Inkscape (http://www.inkscape.org/) -->

<svg
   xmlns:dc="http://purl.org/dc/elements/1.1/"
   xmlns:cc="http://creativecommons.org/ns#"
   xmlns:rdf="http://www.w3.org/1999/02/22-rdf-syntax-ns#"
   xmlns:svg="http://www.w3.org/2000/svg"
   xmlns="http://www.w3.org/2000/svg"
   xmlns:sodipodi="http://sodipodi.sourceforge.net/DTD/sodipodi-0.dtd"
   xmlns:inkscape="http://www.inkscape.org/namespaces/inkscape"
   width="36"
   height="36"
   id="svg3812"
   version="1.1"
   inkscape:version="0.48.2 r9819"
   sodipodi:docname="New document 4">
  <defs
     id="defs3814" />
  <sodipodi:namedview
     id="base"
     pagecolor="#ffffff"
     bordercolor="#666666"
     borderopacity="1.0"
     inkscape:pageopacity="0.0"
     inkscape:pageshadow="2"
     inkscape:zoom="11.2"
     inkscape:cx="12.393984"
     inkscape:cy="24.175621"
     inkscape:document-units="px"
     inkscape:current-layer="layer1"
     showgrid="false"
     inkscape:window-width="1021"
     inkscape:window-height="687"
     inkscape:window-x="132"
     inkscape:window-y="174"
     inkscape:window-maximized="0" />
  <metadata
     id="metadata3817">
    <rdf:RDF>
      <cc:Work
         rdf:about="">
        <dc:format>image/svg+xml</dc:format>
        <dc:type
           rdf:resource="http://purl.org/dc/dcmitype/StillImage" />
        <dc:title></dc:title>
      </cc:Work>
    </rdf:RDF>
  </metadata>
  <g
     inkscape:label="Layer 1"
     inkscape:groupmode="layer"
     id="layer1"
     transform="translate(0,-1016.3622)">
    <a
       id="a3828"
       transform="matrix(1,0,0,0.98976424,0,10.530464)">
      <path
         transform="translate(0,1016.3622)"
         d="m 16.785714,7.2946429 c 0,2.8353901 -2.558373,5.1339291 -5.714286,5.1339291 -3.1559126,0 -5.7142856,-2.298539 -5.7142856,-5.1339291 0,-2.8353905 2.558373,-5.1339288 5.7142856,-5.1339288 3.155913,0 5.714286,2.2985383 5.714286,5.1339288 z"
         sodipodi:ry="5.1339288"
         sodipodi:rx="5.7142859"
         sodipodi:cy="7.2946429"
         sodipodi:cx="11.071428"
         id="path3824"
         style="fill:#ffffff;fill-rule:evenodd;stroke:#000000;stroke-width:1px;stroke-linecap:butt;stroke-linejoin:miter;stroke-opacity:1"
         sodipodi:type="arc" />
    </a>
    <path
       sodipodi:type="arc"
       style="fill:#000000;fill-rule:evenodd;stroke:#000000;stroke-width:1px;stroke-linecap:butt;stroke-linejoin:miter;stroke-opacity:1"
       id="path3837"
       sodipodi:cx="11.026786"
       sodipodi:cy="5.1071429"
       sodipodi:rx="1.2946428"
       sodipodi:ry="0.71428573"
       d="m 12.321429,5.1071429 a 1.2946428,0.71428573 0 1 1 -2.589286,0 1.2946428,0.71428573 0 1 1 2.589286,0 z"
       transform="translate(0,1016.3622)" />
    <a
       transform="matrix(1,0,0,0.98976424,13.214286,10.530464)"
       id="a3839">
      <path
         sodipodi:type="arc"
         style="fill:#ffffff;fill-rule:evenodd;stroke:#000000;stroke-width:1px;stroke-linecap:butt;stroke-linejoin:miter;stroke-opacity:1"
         id="path3841"
         sodipodi:cx="11.071428"
         sodipodi:cy="7.2946429"
         sodipodi:rx="5.7142859"
         sodipodi:ry="5.1339288"
         d="m 16.785714,7.2946429 c 0,2.8353901 -2.558373,5.1339291 -5.714286,5.1339291 -3.1559126,0 -5.7142856,-2.298539 -5.7142856,-5.1339291 0,-2.8353905 2.558373,-5.1339288 5.7142856,-5.1339288 3.155913,0 5.714286,2.2985383 5.714286,5.1339288 z"
         transform="translate(0,1016.3622)" />
    </a>
    <path
       transform="translate(13.214286,1016.3622)"
       d="m 12.321429,5.1071429 a 1.2946428,0.71428573 0 1 1 -2.589286,0 1.2946428,0.71428573 0 1 1 2.589286,0 z"
       sodipodi:ry="0.71428573"
       sodipodi:rx="1.2946428"
       sodipodi:cy="5.1071429"
       sodipodi:cx="11.026786"
       id="path3843"
       style="fill:#000000;fill-rule:evenodd;stroke:#000000;stroke-width:1px;stroke-linecap:butt;stroke-linejoin:miter;stroke-opacity:1"
       sodipodi:type="arc" />
  </g>
</svg>
